<?xml version="1.0" encoding="UTF-8"?>
<svg id="Layer_1" data-name="Layer 1" xmlns="http://www.w3.org/2000/svg" xmlns:xlink="http://www.w3.org/1999/xlink" viewBox="0 0 59.16 51.93">
  <defs>
    <style>
      .cls-1 {
        fill: url(#linear-gradient);
      }
    </style>
    <linearGradient id="linear-gradient" x1="2.52" y1="11.72" x2="53.01" y2="36.63" gradientUnits="userSpaceOnUse">
      <stop offset="0" stop-color="#27aae1"/>
      <stop offset=".13" stop-color="#3293d2"/>
      <stop offset=".4" stop-color="#4867b6"/>
      <stop offset=".65" stop-color="#5847a1"/>
      <stop offset=".86" stop-color="#623395"/>
      <stop offset="1" stop-color="#662d91"/>
    </linearGradient>
  </defs>
  <path class="cls-1" d="m51.65,13.97c2.7,21.96-20.65,45.51-50.22,31.5,8.57-.61,15.05-2.04,15.84-5.76-5.93-.35-9.57-3.44-12.06-7.92,2.74.7,4.89.74,5.58-.9-6.3-2.76-9.06-6.65-9.36-11.34,2.51,1.87,4.66,2.86,6.12,2.16C2.28,16.82,1.34,11.33,2.87,5.51c7.2,7.74,13.48,11.6,26.06,11.88-2.48-13.14,10.48-19.62,19.48-11.7,2.12.85,4.73.16,7.74-1.8-.84,2.88-2.4,4.8-4.68,5.76,2.09.35,4.11.12,6.26,0-1.28,1.58-3.41,3-6.08,4.32Z"/>
</svg>